<svg width="257" height="72" viewBox="0 0 257 72" fill="none" xmlns="http://www.w3.org/2000/svg">
<path d="M101.835 47.2165C102.019 48.8768 100.884 49.181 99.2147 49.5745C93.9587 50.8134 85.5818 50.6226 81.3614 46.7299C75.0496 40.9085 82.1277 33.5164 87.0505 30.1492C91.7865 26.9096 97.4997 22.7106 103.519 23.6366M108.572 39.4688C110.828 37.2123 114.22 37.812 115.983 40.5355C116.828 41.8422 117.249 43.2521 117.717 44.6705M117.717 44.6705C117.886 45.1827 118.062 45.696 118.266 46.206C118.354 46.4261 118.041 46.343 117.601 46.1475M117.717 44.6705C117.723 45.1706 117.683 45.6631 117.601 46.1475M117.717 44.6705C117.714 44.3986 117.698 44.1244 117.667 43.848M117.601 46.1475C116.884 45.828 115.831 45.2083 115.646 45.1205C111.45 43.1372 109.747 48.0518 111.473 51.3711C112.549 53.4414 115.114 51.4568 115.908 50.2482C116.756 48.9581 117.36 47.5883 117.601 46.1475ZM122.383 48.5639C122.383 46.4128 123.127 44.205 123.73 42.1637C125.176 37.276 128.388 44.9387 129.457 45.6258C130.662 46.4004 131.707 39.5496 134.004 40.049C136.713 40.6379 137.069 47.1609 138.552 49.2377M144.952 58.6696C144.837 59.7079 144.236 54.293 144.204 53.6916C143.998 49.8539 144.534 45.5443 143.605 41.8268M143.942 42.8374C146.074 40.7051 151.595 37.6971 154.347 40.1987C156.641 42.2846 153.024 44.8049 151.484 45.8317C149.288 47.2953 146.271 49.1721 144.952 46.206M158.763 39.4688C158.426 39.4207 161.756 37.8755 162.487 37.8407C165.658 37.6897 169.904 41.0466 169.692 44.5404C169.663 45.0218 168.983 45.0822 168.093 44.962M168.093 44.962C166.538 44.7519 164.34 43.9901 163.854 43.9602C161.778 43.8329 159.311 46.0861 161.121 48.0774C163.383 50.565 166.639 46.4589 168.093 44.962ZM168.093 44.962C168.128 44.926 168.162 44.8914 168.195 44.8585M175.943 46.8797C175.291 47.4499 175.614 45.3562 175.625 45.1018C175.727 42.6607 176.526 39.731 179.293 39.0758C183.305 38.1256 184.326 45.9178 185.712 48.2271M191.438 49.2377C190.863 49.0938 191.098 47.8334 191.083 47.4411C190.944 43.9829 190.268 40.5542 189.941 37.1108C189.623 33.7568 188.689 23.8089 189.754 27.0052M191.438 47.5534C191.561 45.9552 192.935 37.9176 195.836 39.7308C197.625 40.8491 198.178 43.242 198.924 45.0457C199.32 46.0037 199.806 48.2093 200.87 48.5639M202.555 42.1637C202.64 42.5034 203.147 42.6508 203.856 42.6797M203.856 42.6797C205.725 42.7559 208.992 42.0071 209.572 41.7894C213.815 40.1986 209.788 36.6043 206.784 37.3728C204.425 37.9762 203.667 40.3515 203.856 42.6797ZM203.856 42.6797C203.977 44.1711 204.486 45.6431 205.212 46.6177C208.379 50.8689 213.022 49.9767 216.703 47.2165M221.755 47.5534C221.755 45.6878 222.07 41.8043 220.745 40.4794M221.082 34.416C220.612 34.4748 220.84 34.6323 221.082 34.7529M229.166 46.206C229.194 46.681 229.649 48.6704 229.335 46.9732C228.679 43.4328 228.829 39.6869 228.829 36.1003M229.166 43.5111C230.633 43.5111 231.95 41.9674 232.853 40.9847C234.297 39.4136 235.812 37.9577 237.588 36.774M250.725 49.2377C248.893 49.2377 247.638 49.5933 245.784 48.6762C240.15 45.8879 239.261 39.7638 244.4 35.988C249.523 32.2228 255.628 35.3454 255.628 41.752C255.628 44.35 254.41 47.1127 251.998 48.3394C248.97 49.8789 246.891 47.8781 244.662 46.206" stroke="#090909" stroke-width="1.28302" stroke-linecap="round"/>
<path d="M49.5695 16.8189C50.4321 24.585 58.4087 31.5274 59.3069 39.165C59.4842 40.6722 61.1357 47.5456 61.012 50.4367M49.5695 16.8189C45.474 19.55 41.888 25.0758 38.4001 28.5649C34.3782 32.5881 29.1714 38.263 24.9707 42.0086M49.5695 16.8189C50.6836 16.2616 42.9676 17.3918 41.8686 17.3918C38.8673 17.3918 35.9647 16.4041 32.9585 16.2459C26.1375 15.8868 19.9307 12.2796 13.0384 12.2354M49.5695 16.8189C49.8242 16.8348 50.082 16.8667 50.3421 16.9127M49.5695 16.8189C50.1371 17.1028 50.3656 17.1136 50.3421 16.9127M60.6034 51.6868C60.8605 51.5582 60.9834 51.1033 61.012 50.4367M60.6034 51.6868C60.6155 51.6747 60.6121 51.6604 60.5946 51.6439M60.6034 51.6868C60.5902 51.7132 60.5734 51.7397 60.553 51.7664M24.9707 42.0086C24.9707 40.2129 24.4538 37.9626 23.6666 36.3001C22.5345 33.9094 21.8151 31.259 20.6117 28.8514C18.1074 23.8411 13.9687 18.7639 13.021 13.0311M24.9707 42.0086C24.9707 41.4566 21.0043 43.9067 20.3571 44.1945C18.7591 44.9049 16.2329 45.4677 14.5019 45.4677C10.1196 45.4677 6.3777 44.8716 2.01267 44.8716M24.9707 42.0086C31.472 42.0606 38.3847 44.9296 44.6689 46.0725C46.9566 46.4886 49.7124 48.4464 51.8606 49.3513C53.2913 49.9538 60.2175 51.2899 60.5946 51.6439M24.9707 42.0086C24.9707 42.0086 25.6395 46.2396 25.9578 47.314C26.6749 49.7351 26.841 52.7031 27.1988 55.2084C27.5917 57.9597 28.3762 61.0611 28.3762 63.8349C28.3762 65.9083 30.7183 68.7946 29.2311 70.4683M41.5504 4.21347C41.7788 6.04147 46.8496 8.68641 48.1375 9.68847C50.2126 11.303 52.6028 13.4563 55.011 14.5269C56.6682 15.2637 59.9427 17.4862 60.898 19.1108C61.7311 20.5275 63.0399 22.2083 64.2075 23.3763C64.5053 23.6742 68.2906 25.9865 67.326 25.9865M41.5504 4.21347C41.6239 4.06637 32.938 8.22419 30.9538 8.22419C28.1295 8.22419 25.2061 10.2103 22.3301 10.4843C21.0671 10.6046 13.0899 10.8022 12.9108 12.235M41.5504 4.21347C41.9485 7.79727 50.2088 15.7713 50.3421 16.9127M67.326 25.9865C64.9285 24.3877 61.6628 22.0044 59.0205 20.8297C56.4583 19.6905 53.2524 17.4267 50.3421 16.9127M67.326 25.9865C65.6414 28.5143 66.8239 32.2095 65.894 35.186C64.7781 38.7581 63.8433 42.3679 62.6164 45.9134C62.1152 47.3617 61.558 48.8796 61.012 50.4367M29.2311 70.4683C30.9163 71.6988 35.2735 68.6822 37.4136 67.9412C39.8553 67.0957 42.7318 66.652 44.9871 65.6493C46.5717 64.9448 49.5543 65.522 51.2879 65.522C53.2067 65.522 60.0802 63.2301 58.1614 63.2301C58.1614 59.5164 59.2697 55.5537 60.553 51.7664M29.2311 70.4683C30.137 70.355 32.2383 69.0451 32.9904 68.3869C34.7591 66.8387 36.8492 65.5654 38.6865 64.1214C40.9352 62.3539 44.2186 59.8196 46.8328 58.7736C49.3756 57.7561 51.1224 55.8941 53.3244 54.6354C54.6027 53.9047 59.8242 52.7213 60.553 51.7664M29.2311 70.4683C27.0644 68.5423 24.8448 66.6897 22.9347 65.2036C20.5592 63.3554 17.5534 60.5416 15.7748 58.2006C13.739 55.5211 9.389 52.7684 6.64196 50.8792C4.58974 49.4678 1.94058 47.2029 2.01092 45.1086M12.9108 12.235C12.9405 12.5018 12.9773 12.7671 13.021 13.0311M12.9108 12.235C12.967 12.2069 13.009 12.2083 13.0384 12.2354M12.9108 12.235C12.9534 12.235 12.9959 12.2352 13.0384 12.2354M60.5946 51.6439C60.7322 51.2393 60.8717 50.8367 61.012 50.4367M60.5946 51.6439C60.5807 51.6847 60.5668 51.7256 60.553 51.7664M13.0384 12.2354C13.124 12.3143 13.1039 12.6104 13.021 13.0311M13.021 13.0311C12.7715 14.2968 11.9531 16.6895 11.7334 17.6783C11.0927 20.5624 10.2752 23.5429 9.34681 26.4321C8.15061 30.1549 6.48635 34.2973 4.6372 37.7325C3.57481 39.7062 2.60728 42.4027 2.02781 44.5764C1.99283 44.7077 1.99538 44.9185 2.01092 45.1086M2.01092 45.1086C2.01333 45.0371 2.01891 44.9657 2.02779 44.8946C2.14968 45.8699 2.04642 45.5431 2.01092 45.1086Z" stroke="#4C73F0" stroke-width="2.13996" stroke-linecap="round"/>
<path d="M70.6135 25.5948C70.2116 26.3905 70.0991 27.4237 70.0716 28.8441C70.0675 29.0562 70.0656 29.2795 70.0636 29.5117L70.0636 29.5161C70.052 30.8799 70.0378 32.5494 69.566 34.0596C69.1598 35.3598 68.767 36.7044 68.3695 38.0656L68.3692 38.0664C67.7113 40.3188 67.0402 42.6164 66.2731 44.8333C65.9976 45.6293 65.6955 46.4737 65.3907 47.3256L65.3906 47.3257C65.1723 47.9358 64.9527 48.5496 64.7405 49.1522C64.7155 49.4759 64.6653 49.8166 64.5657 50.1362C64.4967 50.3572 64.3637 50.6994 64.0997 51.0128C62.9828 54.348 62.077 57.6634 61.9278 60.7496C62.1601 61.0716 62.2843 61.486 62.2275 61.9282C62.1709 62.3681 61.9559 62.6638 61.8527 62.7902C61.7341 62.9356 61.6119 63.0391 61.5313 63.102C61.3683 63.2291 61.1944 63.329 61.0596 63.4006C60.5277 63.6831 59.6784 64.0045 58.8114 64.2936C57.9148 64.5926 56.8925 64.8919 55.9601 65.1185C55.0771 65.3331 54.1199 65.522 53.4278 65.522C52.9225 65.522 52.3512 65.4805 51.809 65.4379L51.5365 65.4162L51.5362 65.4162C51.0663 65.3787 50.6043 65.3419 50.1439 65.3196C48.9677 65.2626 48.1835 65.3311 47.7791 65.5109C46.5198 66.0708 45.1229 66.46 43.8167 66.8019C43.5899 66.8613 43.3662 66.9191 43.1455 66.9762L43.1397 66.9777L43.1393 66.9778C42.048 67.2601 41.0296 67.5236 40.0787 67.8529C39.5903 68.022 38.9737 68.2691 38.2465 68.564L38.0526 68.6427C37.3906 68.9112 36.6604 69.2075 35.9262 69.4845C34.3896 70.0643 32.5452 70.6788 31.089 70.6788L30.1138 70.1473L29.5663 69.5812C29.3287 68.8681 28.6497 68.1201 27.5283 67.2706C26.9901 66.8628 26.4129 66.4765 25.8154 66.077L25.7905 66.0604C25.2195 65.6786 24.6134 65.2734 24.0891 64.8654C21.6467 62.9652 18.5272 60.0548 16.6368 57.5666C15.7613 56.4142 14.3166 55.1662 12.6544 53.9243C11.4379 53.0154 10.1873 52.1684 9.04733 51.3963L9.04672 51.3959C8.63894 51.1197 8.24531 50.8531 7.87247 50.5967C6.79765 49.8575 5.50927 48.8576 4.48104 47.7227C3.52591 46.6684 2.52866 45.2086 2.54471 43.5474C2.52979 43.3253 2.51819 42.9286 2.61697 42.5581C3.21757 40.3051 4.22495 37.4828 5.36393 35.3669C7.15622 32.0372 8.78491 27.9894 9.95876 24.3362C10.8732 21.4902 11.6775 18.5575 12.3066 15.7253C12.4161 15.2325 12.6456 14.4686 12.8675 13.7297L12.8675 13.7297L12.9683 13.3936C13.1972 12.6287 13.4061 11.9104 13.5293 11.3792C13.5016 11.1895 13.4769 10.9989 13.4557 10.8073L13.4347 10.619L13.4582 10.4311C13.5749 9.49707 14.2692 8.98847 14.6288 8.77248C15.0465 8.52168 15.5364 8.34976 15.9879 8.22338C16.9088 7.9656 18.0663 7.79169 19.1753 7.66749C20.3015 7.54136 21.4531 7.45869 22.3908 7.40027C22.7887 7.37548 23.1342 7.35571 23.4231 7.33917L23.4232 7.33917C23.8476 7.31488 24.1501 7.29756 24.3178 7.28158C25.4388 7.17478 26.5982 6.74767 28.0074 6.22851L28.2474 6.14017C29.6573 5.62171 31.3536 5.01427 33.0937 5.01427C33.0934 5.01427 33.0935 5.01426 33.0942 5.01422C33.1005 5.01391 33.1519 5.01137 33.262 4.99196C33.3773 4.97164 33.5261 4.93842 33.71 4.88961C34.0791 4.79166 34.5358 4.64535 35.0602 4.45928C36.1075 4.08774 37.3426 3.58713 38.5377 3.08088C39.6563 2.60699 40.7199 2.13672 41.5388 1.77462L41.5388 1.77459L41.6958 1.7052C42.1098 1.52218 42.4625 1.36662 42.7097 1.26155C42.8286 1.211 42.9481 1.16142 43.0451 1.12529L43.0456 1.12512C43.0802 1.1122 43.1763 1.07643 43.2861 1.04922L43.2866 1.04907C43.2993 1.04559 43.5266 0.983334 43.8067 1.00421L43.812 1.00459C43.9039 1.0111 44.5179 1.05458 44.9582 1.62148C45.1569 1.87744 45.2499 2.13675 45.2826 2.37446C45.3022 2.40336 45.3988 2.59322 45.7622 2.95188C46.1932 3.3772 46.8016 3.84953 47.5039 4.33875C48.1986 4.82259 48.9304 5.28567 49.5949 5.7059L49.6639 5.74954L49.664 5.74959C50.2666 6.13062 50.8779 6.51715 51.263 6.81678C51.7448 7.19158 52.1977 7.55724 52.6492 7.92177C53.2644 8.41844 53.877 8.913 54.5562 9.42564C55.6815 10.275 56.7661 10.9945 57.803 11.4554C58.7713 11.8859 60.1075 12.6957 61.3148 13.5926C62.4785 14.4571 63.7678 15.5806 64.4215 16.6923C65.1716 17.9679 66.3695 19.5122 67.4316 20.5854C67.4495 20.5987 67.4814 20.622 67.5313 20.6573C67.6475 20.7392 67.8041 20.8459 67.9965 20.9763L68.1246 21.0631L68.1253 21.0635C68.4792 21.3031 68.9111 21.5956 69.3119 21.8814C69.7365 22.1841 70.2286 22.5505 70.5562 22.8745C70.6436 22.961 70.7527 23.0767 70.8538 23.2139C70.9296 23.3167 71.1264 23.5943 71.1995 23.9904C71.2408 24.2142 71.2528 24.5332 71.124 24.8811C71.0111 25.1863 70.823 25.4238 70.6135 25.5948Z" stroke="#090909" stroke-width="0.534991" stroke-linecap="round" stroke-linejoin="round"/>
</svg>
